<?xml version="1.0" encoding="UTF-8" standalone="no"?>
<svg width="159px" height="39px" viewBox="0 0 159 39" version="1.1" xmlns="http://www.w3.org/2000/svg" xmlns:xlink="http://www.w3.org/1999/xlink">
    <!-- Generator: Sketch 3.7.2 (28276) - http://www.bohemiancoding.com/sketch -->
    <title>Apollolist</title>
    <desc>Created with Sketch.</desc>
    <defs></defs>
    <g id="Feeds" stroke="none" stroke-width="1" fill="none" fill-rule="evenodd">
        <g id="feed-list" transform="translate(-61.000000, -114.000000)" fill="#222328">
            <g id="window" transform="translate(0.000000, 95.000000)">
                <g id="sidebar">
                    <g id="header">
                        <path d="M61.4199219,47.5957031 C61.4199219,47.3027329 61.4492185,47.0859382 61.5078125,46.9453125 C61.8476579,46.9453125 62.2958957,46.8750007 62.8525391,46.734375 C63.4091825,46.5937493 63.7753897,46.4062512 63.9511719,46.171875 C64.3261737,45.6914038 64.6513658,45.1582061 64.9267578,44.5722656 C65.2021498,43.9863252 65.5156232,43.242192 65.8671875,42.3398438 C69.4648617,33.1054226 72.0898355,26.373068 73.7421875,22.1425781 C73.7890627,22.0488277 73.8798821,21.9316413 74.0146484,21.7910156 C74.1494147,21.6503899 74.2958976,21.5185553 74.4541016,21.3955078 C74.6123055,21.2724603 74.770507,21.1699223 74.9287109,21.0878906 C75.0869149,21.005859 75.2070308,20.9648438 75.2890625,20.9648438 C75.3359377,20.9648438 75.3798826,20.9824217 75.4208984,21.0175781 C75.4619143,21.0527346 75.4999998,21.0761718 75.5351562,21.0878906 L83.8671875,42.8671875 C84.5351596,44.6484464 84.8749999,45.5449218 84.8867188,45.5566406 C85.0039068,45.8496108 85.276365,46.1103504 85.7041016,46.3388672 C86.1318381,46.567384 86.5244123,46.7255855 86.8818359,46.8134766 C87.2392596,46.9013676 87.4941399,46.9453125 87.6464844,46.9453125 C87.7402348,47.0625006 87.7871094,47.2617173 87.7871094,47.5429688 C87.7871094,47.8242202 87.7695314,48.0175776 87.734375,48.1230469 C87.3945296,48.1113281 86.9287139,48.0849611 86.3369141,48.0439453 C85.7451142,48.0029295 85.2148461,47.9707032 84.7460938,47.9472656 C84.2773414,47.923828 83.7792995,47.9121094 83.2519531,47.9121094 C82.6894503,47.9121094 82.1679712,47.923828 81.6875,47.9472656 C81.2070288,47.9707032 80.6679717,47.9999998 80.0703125,48.0351562 C79.4726533,48.0703127 78.9570334,48.0996093 78.5234375,48.1230469 C78.4179682,48.0175776 78.3710937,47.8212905 78.3828125,47.5341797 C78.3945313,47.2470689 78.4531245,47.0507818 78.5585938,46.9453125 C78.8632828,46.9453125 79.2792942,46.8925787 79.8066406,46.7871094 C80.333987,46.6816401 80.6796867,46.5585945 80.84375,46.4179688 C80.9492193,46.3007807 81.0019531,46.1074232 81.0019531,45.8378906 C81.0019531,45.4746076 80.7705101,44.630866 80.3076172,43.3066406 C79.8447242,41.9824153 79.3847679,40.7460995 78.9277344,39.5976562 L78.2246094,37.8925781 C78.1425777,37.77539 78.0605473,37.7167969 77.9785156,37.7167969 C77.6269514,37.6933593 76.2851679,37.6816406 73.953125,37.6816406 C72.2421789,37.6816406 70.7714905,37.7226558 69.5410156,37.8046875 C69.517578,37.8046875 69.4882814,37.8134765 69.453125,37.8310547 C69.4179686,37.8486329 69.388672,37.8691405 69.3652344,37.8925781 L69.3476562,37.9277344 C68.5859337,39.9433695 67.9707055,41.601556 67.5019531,42.9023438 C67.1269513,44.0156306 66.9394531,44.9824178 66.9394531,45.8027344 C66.9394531,45.9785165 67.0273429,46.1396477 67.203125,46.2861328 C67.3789071,46.4326179 67.5869129,46.5439449 67.8271484,46.6201172 C68.067384,46.6962894 68.3310533,46.7607419 68.6181641,46.8134766 C68.9052749,46.8662112 69.1425772,46.9013671 69.3300781,46.9189453 C69.5175791,46.9365235 69.6582027,46.9453125 69.7519531,46.9453125 C69.8105472,47.0039065 69.8486327,47.1855454 69.8662109,47.4902344 C69.8837892,47.7949234 69.8691409,48.0058588 69.8222656,48.1230469 C69.4355449,48.0996093 69.0107445,48.0703127 68.5478516,48.0351562 C68.0849586,47.9999998 67.6572285,47.9707032 67.2646484,47.9472656 C66.8720683,47.923828 66.4062527,47.9121094 65.8671875,47.9121094 C65.3164035,47.9121094 64.8271506,47.923828 64.3994141,47.9472656 C63.9716775,47.9707032 63.5000026,47.9999998 62.984375,48.0351562 C62.4687474,48.0703127 61.9765648,48.0996093 61.5078125,48.1230469 C61.4492185,48.0644528 61.4199219,47.8886733 61.4199219,47.5957031 L61.4199219,47.5957031 Z M70.1210938,35.8535156 C70.1210938,35.9589849 70.144531,36.0117188 70.1914062,36.0117188 C71.6093821,36.0703128 72.8456979,36.0996094 73.9003906,36.0996094 C74.919927,36.0996094 76.0624937,36.0585942 77.328125,35.9765625 C77.3515626,35.9765625 77.3749999,35.9589846 77.3984375,35.9238281 C77.4218751,35.8886717 77.4394531,35.8535158 77.4511719,35.8183594 L77.4511719,35.765625 L73.8652344,25.9042969 L70.1210938,35.8535156 Z M88.1210938,32.3554688 L88.1210938,32.2324219 C88.1210938,32.0214833 88.1503903,31.8691411 88.2089844,31.7753906 C90.5293085,31.447264 92.4746015,30.873051 94.0449219,30.0527344 C94.1386723,30.0527344 94.2353511,30.1347648 94.3349609,30.2988281 C94.4345708,30.4628914 94.484375,30.5976557 94.484375,30.703125 C94.484375,30.7734379 94.4580081,30.9316394 94.4052734,31.1777344 C94.3525388,31.4238294 94.3056643,31.6611317 94.2646484,31.8896484 C94.2236326,32.1181652 94.203125,32.2792964 94.203125,32.3730469 C94.203125,32.490235 94.2324216,32.5488281 94.2910156,32.5488281 C94.3144532,32.5488281 94.3554685,32.5195315 94.4140625,32.4609375 C94.8007832,32.1328109 95.2578099,31.8017595 95.7851562,31.4677734 C96.3125026,31.1337874 96.9189419,30.8291029 97.6044922,30.5537109 C98.2900425,30.2783189 98.8847631,30.140625 99.3886719,30.140625 C100.361333,30.140625 101.260738,30.3193342 102.086914,30.6767578 C102.91309,31.0341815 103.607419,31.5029268 104.169922,32.0830078 C104.732425,32.6630888 105.212889,33.3251916 105.611328,34.0693359 C106.009768,34.8134803 106.302733,35.5634728 106.490234,36.3193359 C106.677735,37.0751991 106.771484,37.8164026 106.771484,38.5429688 C106.771484,39.8203189 106.487308,41.0654236 105.918945,42.2783203 C105.350583,43.491217 104.618169,44.537105 103.72168,45.4160156 C102.825191,46.2949263 101.80274,47.0009739 100.654297,47.5341797 C99.5058536,48.0673855 98.3632869,48.3339844 97.2265625,48.3339844 C96.277339,48.3339844 95.3222704,48.1816421 94.3613281,47.8769531 C94.2558588,48.0175788 94.203125,48.1933583 94.203125,48.4042969 L94.203125,52.359375 C94.203125,53.9414142 94.2734368,54.9492166 94.4140625,55.3828125 C94.4609377,55.5820322 94.8037077,55.7402338 95.4423828,55.8574219 C96.0810579,55.97461 96.5937481,56.0332031 96.9804688,56.0332031 C97.0625004,56.1386724 97.1064453,56.3349595 97.1123047,56.6220703 C97.1181641,56.9091811 97.0742192,57.1054682 96.9804688,57.2109375 C96.6054669,57.1992187 96.1250029,57.1728518 95.5390625,57.1318359 C94.9531221,57.0908201 94.4375022,57.0615235 93.9921875,57.0439453 C93.5468728,57.0263671 93.0869164,57.0175781 92.6123047,57.0175781 C92.1376929,57.0175781 91.6806663,57.0263671 91.2412109,57.0439453 C90.8017556,57.0615235 90.2949247,57.0908201 89.7207031,57.1318359 C89.1464815,57.1728518 88.6718769,57.1992187 88.296875,57.2109375 C88.1914057,57.1054682 88.1416015,56.9091811 88.1474609,56.6220703 C88.1533203,56.3349595 88.2031245,56.1386724 88.296875,56.0332031 C88.6835957,56.0332031 89.1933562,55.97461 89.8261719,55.8574219 C90.4589875,55.7402338 90.8046872,55.5820322 90.8632812,55.3828125 C91.003907,54.9492166 91.0742188,53.9414142 91.0742188,52.359375 L91.0742188,35.6777344 C91.0742188,34.599604 91.003907,33.896486 90.8632812,33.5683594 C90.7929684,33.4042961 90.6318372,33.2666021 90.3798828,33.1552734 C90.1279284,33.0439448 89.8378923,32.9677736 89.5097656,32.9267578 C89.181639,32.885742 88.9179697,32.8593751 88.71875,32.8476562 C88.5195303,32.8359374 88.3496101,32.8300781 88.2089844,32.8300781 C88.1621091,32.7832029 88.1328126,32.6250013 88.1210938,32.3554688 L88.1210938,32.3554688 Z M94.203125,43.921875 C94.203125,44.4257838 94.33203,44.8769511 94.5898438,45.2753906 C94.8476575,45.6738301 95.1757793,45.9873035 95.5742188,46.2158203 C95.9726582,46.4443371 96.3798807,46.6142573 96.7958984,46.7255859 C97.2119161,46.8369146 97.6132793,46.8925781 98,46.8925781 C98.8085978,46.8925781 99.5585903,46.6933614 100.25,46.2949219 C100.94141,45.8964824 101.506834,45.3691439 101.946289,44.7128906 C102.385744,44.0566373 102.728514,43.3242228 102.974609,42.515625 C103.220704,41.7070272 103.34375,40.8867229 103.34375,40.0546875 C103.34375,38.8710878 103.191408,37.7988329 102.886719,36.8378906 C102.58203,35.8769483 102.168948,35.0859406 101.647461,34.4648438 C101.125974,33.8437469 100.522464,33.3691423 99.8369141,33.0410156 C99.1513638,32.712889 98.4160196,32.5488281 97.6308594,32.5488281 C97.103513,32.5488281 96.5673855,32.6396475 96.0224609,32.8212891 C95.4775363,33.0029306 95.0380876,33.2197253 94.7041016,33.4716797 C94.3701155,33.7236341 94.203125,33.9433584 94.203125,34.1308594 L94.203125,43.921875 Z M110.023438,39.3164062 C110.023438,38.0156185 110.246092,36.7968807 110.691406,35.6601562 C111.136721,34.5234318 111.74316,33.5478556 112.510742,32.7333984 C113.278324,31.9189412 114.201166,31.2773461 115.279297,30.8085938 C116.357427,30.3398414 117.499994,30.1054688 118.707031,30.1054688 C120.464853,30.1054688 122.011712,30.4921836 123.347656,31.265625 C124.6836,32.0390664 125.700192,33.0937433 126.397461,34.4296875 C127.09473,35.7656317 127.443359,37.2831946 127.443359,38.9824219 C127.443359,40.2832096 127.220705,41.5078068 126.775391,42.65625 C126.330076,43.8046932 125.726566,44.7919881 124.964844,45.6181641 C124.203121,46.4443401 123.286138,47.0947242 122.213867,47.5693359 C121.141596,48.0439477 120.001959,48.28125 118.794922,48.28125 C117.470697,48.28125 116.257818,48.0527367 115.15625,47.5957031 C114.054682,47.1386696 113.13184,46.5117227 112.387695,45.7148438 C111.643551,44.9179648 111.063479,43.9687555 110.647461,42.8671875 C110.231443,41.7656195 110.023438,40.5820376 110.023438,39.3164062 L110.023438,39.3164062 Z M113.539062,38.4902344 C113.539062,39.2988322 113.615234,40.1015585 113.767578,40.8984375 C113.919923,41.6953165 114.154295,42.4570276 114.470703,43.1835938 C114.787111,43.9101599 115.167967,44.551755 115.613281,45.1083984 C116.058596,45.6650418 116.591794,46.1103499 117.212891,46.4443359 C117.833987,46.778322 118.49609,46.9453125 119.199219,46.9453125 C119.761722,46.9453125 120.280271,46.8515634 120.754883,46.6640625 C121.229495,46.4765616 121.636717,46.2187516 121.976562,45.890625 C122.316408,45.5624984 122.612303,45.1787131 122.864258,44.7392578 C123.116212,44.2998025 123.318359,43.8134792 123.470703,43.2802734 C123.623048,42.7470676 123.737304,42.2021512 123.813477,41.6455078 C123.889649,41.0888644 123.927734,40.5175811 123.927734,39.9316406 C123.927734,38.9238231 123.801759,37.92188 123.549805,36.9257812 C123.29785,35.9296825 122.937502,35.0214885 122.46875,34.2011719 C121.999998,33.3808553 121.399418,32.7158229 120.666992,32.2060547 C119.934567,31.6962865 119.13477,31.4414062 118.267578,31.4414062 C117.587887,31.4414062 116.978518,31.5761705 116.439453,31.8457031 C115.900388,32.1152357 115.45215,32.472654 115.094727,32.9179688 C114.737303,33.3632835 114.438478,33.890622 114.198242,34.5 C113.958007,35.109378 113.788086,35.7451139 113.688477,36.4072266 C113.588867,37.0693392 113.539062,37.7636682 113.539062,38.4902344 L113.539062,38.4902344 Z M129.957031,46.9453125 C130.343752,46.9453125 130.853512,46.8837897 131.486328,46.7607422 C132.119144,46.6376947 132.464843,46.4824228 132.523438,46.2949219 C132.652344,45.8496071 132.716797,44.8418047 132.716797,43.2714844 L132.716797,25.2363281 C132.716797,24.1581977 132.652344,23.4550798 132.523438,23.1269531 C132.312499,22.6347632 131.480476,22.3886719 130.027344,22.3886719 C130.015625,22.3886719 130.003906,22.3037118 129.992188,22.1337891 C129.980469,21.9638663 129.977539,21.7910165 129.983398,21.6152344 C129.989258,21.4394522 130.021484,21.3457032 130.080078,21.3339844 C131.943369,21.1464834 133.871084,20.601567 135.863281,19.6992188 C135.968751,19.6992188 136.071289,19.7724602 136.170898,19.9189453 C136.270508,20.0654304 136.320312,20.2089837 136.320312,20.3496094 C136.015623,21.22852 135.863281,22.4121019 135.863281,23.9003906 L135.863281,43.2714844 C135.863281,44.8418047 135.933593,45.8496071 136.074219,46.2949219 C136.097656,46.3886723 136.220702,46.4824214 136.443359,46.5761719 C136.666017,46.6699223 136.923827,46.7402341 137.216797,46.7871094 C137.509767,46.8339846 137.785155,46.8720702 138.042969,46.9013672 C138.300783,46.9306642 138.499999,46.9453125 138.640625,46.9453125 C138.722657,47.0625006 138.763672,47.2617173 138.763672,47.5429688 C138.763672,47.5546876 138.769531,47.5664062 138.78125,47.578125 C138.78125,47.8359388 138.734375,48.0175776 138.640625,48.1230469 C138.265623,48.0996093 137.785159,48.0703127 137.199219,48.0351562 C136.613278,47.9999998 136.097658,47.9707032 135.652344,47.9472656 C135.207029,47.923828 134.747073,47.9121094 134.272461,47.9121094 C133.797849,47.9121094 133.340823,47.923828 132.901367,47.9472656 C132.461912,47.9707032 131.955081,47.9999998 131.380859,48.0351562 C130.806638,48.0703127 130.332033,48.0996093 129.957031,48.1230469 C129.851562,48.0175776 129.798828,47.8359388 129.798828,47.578125 C129.798828,47.273436 129.851562,47.0625006 129.957031,46.9453125 L129.957031,46.9453125 Z M140.345703,46.9453125 C140.732424,46.9453125 141.242184,46.8837897 141.875,46.7607422 C142.507816,46.6376947 142.853515,46.4824228 142.912109,46.2949219 C143.041016,45.8496071 143.105469,44.8418047 143.105469,43.2714844 L143.105469,25.2363281 C143.105469,24.1581977 143.041016,23.4550798 142.912109,23.1269531 C142.701171,22.6347632 141.869148,22.3886719 140.416016,22.3886719 C140.404297,22.3886719 140.392578,22.3037118 140.380859,22.1337891 C140.369141,21.9638663 140.366211,21.7910165 140.37207,21.6152344 C140.37793,21.4394522 140.410156,21.3457032 140.46875,21.3339844 C142.332041,21.1464834 144.259756,20.601567 146.251953,19.6992188 C146.357422,19.6992188 146.45996,19.7724602 146.55957,19.9189453 C146.65918,20.0654304 146.708984,20.2089837 146.708984,20.3496094 C146.404295,21.22852 146.251953,22.4121019 146.251953,23.9003906 L146.251953,43.2714844 C146.251953,44.8418047 146.322265,45.8496071 146.462891,46.2949219 C146.486328,46.3886723 146.609374,46.4824214 146.832031,46.5761719 C147.054689,46.6699223 147.312499,46.7402341 147.605469,46.7871094 C147.898439,46.8339846 148.173827,46.8720702 148.431641,46.9013672 C148.689454,46.9306642 148.888671,46.9453125 149.029297,46.9453125 C149.111329,47.0625006 149.152344,47.2617173 149.152344,47.5429688 C149.152344,47.5546876 149.158203,47.5664062 149.169922,47.578125 C149.169922,47.8359388 149.123047,48.0175776 149.029297,48.1230469 C148.654295,48.0996093 148.173831,48.0703127 147.587891,48.0351562 C147.00195,47.9999998 146.48633,47.9707032 146.041016,47.9472656 C145.595701,47.923828 145.135745,47.9121094 144.661133,47.9121094 C144.186521,47.9121094 143.729494,47.923828 143.290039,47.9472656 C142.850584,47.9707032 142.343753,47.9999998 141.769531,48.0351562 C141.19531,48.0703127 140.720705,48.0996093 140.345703,48.1230469 C140.240234,48.0175776 140.1875,47.8359388 140.1875,47.578125 C140.1875,47.273436 140.240234,47.0625006 140.345703,46.9453125 L140.345703,46.9453125 Z M151.542969,39.3164062 C151.542969,38.0156185 151.765623,36.7968807 152.210938,35.6601562 C152.656252,34.5234318 153.262691,33.5478556 154.030273,32.7333984 C154.797855,31.9189412 155.720698,31.2773461 156.798828,30.8085938 C157.876959,30.3398414 159.019525,30.1054688 160.226562,30.1054688 C161.984384,30.1054688 163.531243,30.4921836 164.867188,31.265625 C166.203132,32.0390664 167.219723,33.0937433 167.916992,34.4296875 C168.614261,35.7656317 168.962891,37.2831946 168.962891,38.9824219 C168.962891,40.2832096 168.740237,41.5078068 168.294922,42.65625 C167.849607,43.8046932 167.246098,44.7919881 166.484375,45.6181641 C165.722652,46.4443401 164.805669,47.0947242 163.733398,47.5693359 C162.661127,48.0439477 161.52149,48.28125 160.314453,48.28125 C158.990228,48.28125 157.777349,48.0527367 156.675781,47.5957031 C155.574213,47.1386696 154.651371,46.5117227 153.907227,45.7148438 C153.163082,44.9179648 152.58301,43.9687555 152.166992,42.8671875 C151.750974,41.7656195 151.542969,40.5820376 151.542969,39.3164062 L151.542969,39.3164062 Z M155.058594,38.4902344 C155.058594,39.2988322 155.134765,40.1015585 155.287109,40.8984375 C155.439454,41.6953165 155.673827,42.4570276 155.990234,43.1835938 C156.306642,43.9101599 156.687498,44.551755 157.132812,45.1083984 C157.578127,45.6650418 158.111325,46.1103499 158.732422,46.4443359 C159.353519,46.778322 160.015621,46.9453125 160.71875,46.9453125 C161.281253,46.9453125 161.799802,46.8515634 162.274414,46.6640625 C162.749026,46.4765616 163.156248,46.2187516 163.496094,45.890625 C163.835939,45.5624984 164.131835,45.1787131 164.383789,44.7392578 C164.635743,44.2998025 164.83789,43.8134792 164.990234,43.2802734 C165.142579,42.7470676 165.256836,42.2021512 165.333008,41.6455078 C165.40918,41.0888644 165.447266,40.5175811 165.447266,39.9316406 C165.447266,38.9238231 165.32129,37.92188 165.069336,36.9257812 C164.817382,35.9296825 164.457034,35.0214885 163.988281,34.2011719 C163.519529,33.3808553 162.918949,32.7158229 162.186523,32.2060547 C161.454098,31.6962865 160.654301,31.4414062 159.787109,31.4414062 C159.107418,31.4414062 158.49805,31.5761705 157.958984,31.8457031 C157.419919,32.1152357 156.971681,32.472654 156.614258,32.9179688 C156.256834,33.3632835 155.958009,33.890622 155.717773,34.5 C155.477538,35.109378 155.307618,35.7451139 155.208008,36.4072266 C155.108398,37.0693392 155.058594,37.7636682 155.058594,38.4902344 L155.058594,38.4902344 Z M171.476562,46.9453125 C171.863283,46.9453125 172.373044,46.8837897 173.005859,46.7607422 C173.638675,46.6376947 173.984375,46.4824228 174.042969,46.2949219 C174.171876,45.8496071 174.236328,44.8418047 174.236328,43.2714844 L174.236328,25.2363281 C174.236328,24.1581977 174.171876,23.4550798 174.042969,23.1269531 C173.83203,22.6347632 173.000007,22.3886719 171.546875,22.3886719 C171.535156,22.3886719 171.523438,22.3037118 171.511719,22.1337891 C171.5,21.9638663 171.49707,21.7910165 171.50293,21.6152344 C171.508789,21.4394522 171.541015,21.3457032 171.599609,21.3339844 C173.4629,21.1464834 175.390615,20.601567 177.382812,19.6992188 C177.488282,19.6992188 177.59082,19.7724602 177.69043,19.9189453 C177.79004,20.0654304 177.839844,20.2089837 177.839844,20.3496094 C177.535155,21.22852 177.382812,22.4121019 177.382812,23.9003906 L177.382812,43.2714844 C177.382812,44.8418047 177.453124,45.8496071 177.59375,46.2949219 C177.617188,46.3886723 177.740233,46.4824214 177.962891,46.5761719 C178.185548,46.6699223 178.443358,46.7402341 178.736328,46.7871094 C179.029298,46.8339846 179.304686,46.8720702 179.5625,46.9013672 C179.820314,46.9306642 180.019531,46.9453125 180.160156,46.9453125 C180.242188,47.0625006 180.283203,47.2617173 180.283203,47.5429688 C180.283203,47.5546876 180.289062,47.5664062 180.300781,47.578125 C180.300781,47.8359388 180.253907,48.0175776 180.160156,48.1230469 C179.785154,48.0996093 179.30469,48.0703127 178.71875,48.0351562 C178.13281,47.9999998 177.61719,47.9707032 177.171875,47.9472656 C176.72656,47.923828 176.266604,47.9121094 175.791992,47.9121094 C175.31738,47.9121094 174.860354,47.923828 174.420898,47.9472656 C173.981443,47.9707032 173.474612,47.9999998 172.900391,48.0351562 C172.326169,48.0703127 171.851564,48.0996093 171.476562,48.1230469 C171.371093,48.0175776 171.318359,47.8359388 171.318359,47.578125 C171.318359,47.273436 171.371093,47.0625006 171.476562,46.9453125 L171.476562,46.9453125 Z M182.304688,32.3554688 L182.304688,32.2324219 C182.304688,32.0214833 182.333984,31.8691411 182.392578,31.7753906 C184.712902,31.447264 186.658195,30.873051 188.228516,30.0527344 C188.322266,30.0527344 188.418945,30.1347648 188.518555,30.2988281 C188.618165,30.4628914 188.667969,30.5976557 188.667969,30.703125 C188.480468,32.0390692 188.386719,32.9355446 188.386719,33.3925781 L188.386719,34.7460938 L188.386719,43.2714844 C188.386719,44.8418047 188.457031,45.8496071 188.597656,46.2949219 C188.609375,46.3652347 188.670898,46.4326169 188.782227,46.4970703 C188.893555,46.5615238 189.031249,46.6142576 189.195312,46.6552734 C189.359376,46.6962893 189.538085,46.7373045 189.731445,46.7783203 C189.924806,46.8193361 190.115233,46.8515624 190.302734,46.875 C190.490235,46.8984376 190.657226,46.9160156 190.803711,46.9277344 C190.950196,46.9394532 191.070312,46.9453125 191.164062,46.9453125 C191.257813,47.0625006 191.304688,47.273436 191.304688,47.578125 C191.304688,47.8359388 191.257813,48.0175776 191.164062,48.1230469 C190.789061,48.0996093 190.308597,48.0703127 189.722656,48.0351562 C189.136716,47.9999998 188.621096,47.9707032 188.175781,47.9472656 C187.730467,47.923828 187.27051,47.9121094 186.795898,47.9121094 C186.321287,47.9121094 185.86426,47.923828 185.424805,47.9472656 C184.985349,47.9707032 184.478518,47.9999998 183.904297,48.0351562 C183.330075,48.0703127 182.855471,48.0996093 182.480469,48.1230469 C182.374999,48.0175776 182.325195,47.8212905 182.331055,47.5341797 C182.336914,47.2470689 182.386718,47.0507818 182.480469,46.9453125 C182.867189,46.9453125 183.37695,46.8837897 184.009766,46.7607422 C184.642581,46.6376947 184.988281,46.4824228 185.046875,46.2949219 C185.175782,45.8496071 185.240234,44.8418047 185.240234,43.2714844 L185.240234,35.6777344 C185.240234,34.599604 185.175782,33.896486 185.046875,33.5683594 C184.953125,33.3574208 184.689455,33.1904303 184.255859,33.0673828 C183.822263,32.9443353 183.458986,32.8740235 183.166016,32.8564453 C182.873045,32.8388671 182.615235,32.8300781 182.392578,32.8300781 C182.345703,32.7949217 182.316406,32.6367202 182.304688,32.3554688 L182.304688,32.3554688 Z M184.466797,23.8212891 C184.466797,23.2529268 184.663084,22.7695332 185.055664,22.3710938 C185.448244,21.9726543 185.931638,21.7734375 186.505859,21.7734375 C187.080081,21.7734375 187.563475,21.9726543 187.956055,22.3710938 C188.348635,22.7695332 188.544922,23.2529268 188.544922,23.8212891 C188.544922,24.3896513 188.348635,24.8701152 187.956055,25.2626953 C187.563475,25.6552754 187.080081,25.8515625 186.505859,25.8515625 C185.931638,25.8515625 185.448244,25.6552754 185.055664,25.2626953 C184.663084,24.8701152 184.466797,24.3896513 184.466797,23.8212891 L184.466797,23.8212891 Z M193.677734,43.4296875 C193.900392,43.2656242 194.146483,43.1835938 194.416016,43.1835938 C194.580079,43.1835938 194.703125,43.2128903 194.785156,43.2714844 C194.878907,43.6230486 195.02246,43.9775373 195.21582,44.3349609 C195.409181,44.6923846 195.646483,45.0380843 195.927734,45.3720703 C196.208986,45.7060564 196.51367,46.0048815 196.841797,46.2685547 C197.169924,46.5322279 197.53906,46.7431633 197.949219,46.9013672 C198.359377,47.0595711 198.769529,47.1386719 199.179688,47.1386719 C200.046879,47.1386719 200.752927,46.8779323 201.297852,46.3564453 C201.842776,45.8349583 202.115234,45.1171921 202.115234,44.203125 C202.115234,43.8046855 202.041993,43.4326189 201.895508,43.0869141 C201.749023,42.7412092 201.573243,42.4482434 201.368164,42.2080078 C201.163085,41.9677722 200.875978,41.712892 200.506836,41.4433594 C200.137693,41.1738268 199.803712,40.9599617 199.504883,40.8017578 C199.206053,40.6435539 198.810549,40.4326185 198.318359,40.1689453 C197.826169,39.9052721 197.433595,39.6855478 197.140625,39.5097656 C196.69531,39.2519518 196.302736,38.9912123 195.962891,38.7275391 C195.623045,38.4638659 195.300783,38.1562518 194.996094,37.8046875 C194.691405,37.4531232 194.457032,37.0546897 194.292969,36.609375 C194.128905,36.1640603 194.046875,35.677737 194.046875,35.1503906 C194.046875,34.1777295 194.331052,33.307621 194.899414,32.5400391 C195.467776,31.7724571 196.200191,31.1865255 197.09668,30.7822266 C197.993169,30.3779277 198.945307,30.1757812 199.953125,30.1757812 C200.421877,30.1757812 200.861326,30.2050778 201.271484,30.2636719 C201.681643,30.3222659 202.147458,30.398437 202.668945,30.4921875 C203.190432,30.585938 203.673826,30.6562498 204.119141,30.703125 C204.400392,31.9335999 204.564453,33.4335849 204.611328,35.203125 C204.611328,35.3320319 204.476564,35.3964844 204.207031,35.3964844 C203.914061,35.3964844 203.679688,35.3320319 203.503906,35.203125 C203.398437,34.7929667 203.243165,34.3798849 203.038086,33.9638672 C202.833007,33.5478495 202.589845,33.1464863 202.308594,32.7597656 C202.027342,32.3730449 201.690432,32.0566419 201.297852,31.8105469 C200.905271,31.5644519 200.498049,31.4414062 200.076172,31.4414062 C199.443356,31.4414062 198.907229,31.5556629 198.467773,31.7841797 C198.028318,32.0126965 197.706056,32.3173809 197.500977,32.6982422 C197.295897,33.0791035 197.193359,33.5156225 197.193359,34.0078125 C197.193359,34.3007827 197.222656,34.5732409 197.28125,34.8251953 C197.339844,35.0771497 197.439452,35.3085927 197.580078,35.5195312 C197.720704,35.7304698 197.858398,35.9121086 197.993164,36.0644531 C198.12793,36.2167976 198.324217,36.3808585 198.582031,36.5566406 C198.839845,36.7324228 199.05371,36.8701167 199.223633,36.9697266 C199.393556,37.0693364 199.642576,37.2128897 199.970703,37.4003906 C200.29883,37.5878916 200.55078,37.7343745 200.726562,37.8398438 C200.867188,37.9335942 201.10742,38.0771475 201.447266,38.2705078 C201.787111,38.4638682 202.05371,38.6162104 202.24707,38.7275391 C202.440431,38.8388677 202.695311,39.0029286 203.011719,39.2197266 C203.328127,39.4365245 203.583007,39.6269523 203.776367,39.7910156 C203.969728,39.9550789 204.183593,40.160155 204.417969,40.40625 C204.652345,40.652345 204.833984,40.8896473 204.962891,41.1181641 C205.091798,41.3466808 205.200195,41.6103501 205.288086,41.9091797 C205.375977,42.2080093 205.419922,42.5097641 205.419922,42.8144531 C205.419922,43.8925835 205.126956,44.86523 204.541016,45.7324219 C203.955075,46.5996137 203.184575,47.2705054 202.229492,47.7451172 C201.274409,48.2197289 200.246099,48.4570312 199.144531,48.4570312 C198.582028,48.4570312 198.060549,48.4189457 197.580078,48.3427734 C197.099607,48.2666012 196.537113,48.1523445 195.892578,48 C195.248044,47.8476555 194.744142,47.7363285 194.380859,47.6660156 C194.216796,47.2441385 194.058595,46.5673875 193.90625,45.6357422 C193.753905,44.7040969 193.677734,43.9687527 193.677734,43.4296875 L193.677734,43.4296875 Z M207.863281,31.6875 C207.863281,31.6171871 208.015623,31.4091814 208.320312,31.0634766 C208.625002,30.7177717 208.830078,30.492188 208.935547,30.3867188 L210.447266,30.3867188 L210.447266,27.8203125 C210.658204,27.5624987 210.968748,27.2109397 211.378906,26.765625 C211.789065,26.3203103 212.143553,25.936525 212.442383,25.6142578 C212.741212,25.2919906 212.902344,25.1132814 212.925781,25.078125 C212.996094,25.0078121 213.083984,24.9609376 213.189453,24.9375 C213.259766,24.9140624 213.318359,24.9082031 213.365234,24.9199219 C213.400391,24.9316407 213.429687,24.9375 213.453125,24.9375 C213.523438,24.9609376 213.564453,24.9960935 213.576172,25.0429688 L213.576172,30.3867188 L218.832031,30.3867188 C218.890625,30.3867188 218.93457,30.3955077 218.963867,30.4130859 C218.993164,30.4306642 219.013672,30.46582 219.025391,30.5185547 C219.037109,30.5712893 219.042969,30.6152342 219.042969,30.6503906 L219.042969,30.8261719 C219.042969,31.2597678 218.855471,31.6699199 218.480469,32.0566406 L213.576172,32.0566406 L213.576172,42.7441406 C213.576172,43.8339898 213.801756,44.6630831 214.25293,45.2314453 C214.704104,45.7998075 215.374996,46.0839844 216.265625,46.0839844 C216.640627,46.0839844 217.033201,46.0136726 217.443359,45.8730469 C217.853518,45.7324212 218.164061,45.6035162 218.375,45.4863281 C218.585939,45.36914 218.767577,45.257813 218.919922,45.1523438 C219.001954,45.1875002 219.042969,45.2812492 219.042969,45.4335938 C219.042969,45.5039066 219.03125,45.585937 219.007812,45.6796875 C218.984375,45.773438 218.960938,45.8525387 218.9375,45.9169922 C218.914062,45.9814456 218.896484,46.0253905 218.884766,46.0488281 C218.697265,46.2597667 218.4834,46.4707021 218.243164,46.6816406 C218.002928,46.8925792 217.698244,47.1298815 217.329102,47.3935547 C216.959959,47.6572279 216.543948,47.8710929 216.081055,48.0351562 C215.618162,48.1992196 215.152346,48.28125 214.683594,48.28125 C214.238279,48.28125 213.822268,48.2431644 213.435547,48.1669922 C213.048826,48.0908199 212.667971,47.9501963 212.292969,47.7451172 C211.917967,47.540038 211.595704,47.2763688 211.326172,46.9541016 C211.056639,46.6318343 210.842774,46.2070339 210.68457,45.6796875 C210.526366,45.1523411 210.447266,44.5546908 210.447266,43.8867188 L210.447266,32.0566406 L208.074219,32.0566406 C208.015625,32.0566406 207.965821,32.0126958 207.924805,31.9248047 C207.883789,31.8369136 207.863281,31.7578129 207.863281,31.6875 L207.863281,31.6875 Z" id="Apollolist"></path>
                    </g>
                </g>
            </g>
        </g>
    </g>
</svg>