<?xml version="1.0" encoding="utf-8"?>
<!-- Generator: Adobe Illustrator 15.0.0, SVG Export Plug-In . SVG Version: 6.00 Build 0)  -->
<!DOCTYPE svg PUBLIC "-//W3C//DTD SVG 1.1//EN" "http://www.w3.org/Graphics/SVG/1.1/DTD/svg11.dtd">
<svg xmlns="http://www.w3.org/2000/svg" xmlns:xlink="http://www.w3.org/1999/xlink" version="1.1" id="Слой_1" x="0px" y="0px" width="50px" height="50px" viewBox="0 0 50 50" enable-background="new 0 0 50 50" xml:space="preserve" fill="#000000">
<g fill="#000000">
	<path d="M25,17c-4.962,0-9,4.038-9,9c0,4.963,4.038,9,9,9c4.963,0,9-4.037,9-9C34,21.038,29.963,17,25,17z" fill="#000000"/>
	<path d="M44,9h-9.05l-1.618-2.555C32.719,5.527,31.796,5,30.8,5H19.1c-0.997,0-1.92,0.527-2.545,1.465L14.95,9H6   c-2.757,0-5,2.243-5,5v24c0,2.757,2.243,5,5,5h38c2.757,0,5-2.243,5-5V14C49,11.243,46.757,9,44,9z M10,18c-1.1,0-2-0.9-2-2   s0.9-2,2-2s2,0.9,2,2S11.1,18,10,18z M25,37c-6.065,0-11-4.935-11-11s4.935-11,11-11s11,4.935,11,11S31.065,37,25,37z" fill="#000000"/>
</g>
</svg>
