<?xml version="1.0" encoding="utf-8"?>
<!-- Generator: Adobe Illustrator 18.1.1, SVG Export Plug-In . SVG Version: 6.00 Build 0)  -->
<svg xmlns="http://www.w3.org/2000/svg" xmlns:xlink="http://www.w3.org/1999/xlink" version="1.1" id="Layer_1" x="0px" y="0px" viewBox="0 0 26 26" enable-background="new 0 0 26 26" xml:space="preserve" fill="#000000">
<path d="M14,16h-2c-1.1,0-2-0.9-2-2v-2c0-1.1,0.9-2,2-2h2c1.1,0,2,0.9,2,2v2C16,15.1,15.1,16,14,16z" fill="#000000"/>
<path d="M23,16h-2c-1.1,0-2-0.9-2-2v-2c0-1.1,0.9-2,2-2h2c1.1,0,2,0.9,2,2v2C25,15.1,24.1,16,23,16z" fill="#000000"/>
<path d="M23,25h-2c-1.1,0-2-0.9-2-2v-2c0-1.1,0.9-2,2-2h2c1.1,0,2,0.9,2,2v2C25,24.1,24.1,25,23,25z" fill="#000000"/>
<path d="M5,16H3c-1.1,0-2-0.9-2-2v-2c0-1.1,0.9-2,2-2h2c1.1,0,2,0.9,2,2v2C7,15.1,6.1,16,5,16z" fill="#000000"/>
<path d="M14,7h-2c-1.1,0-2-0.9-2-2V3c0-1.1,0.9-2,2-2h2c1.1,0,2,0.9,2,2v2C16,6.1,15.1,7,14,7z" fill="#000000"/>
<path d="M23,7h-2c-1.1,0-2-0.9-2-2V3c0-1.1,0.9-2,2-2h2c1.1,0,2,0.9,2,2v2C25,6.1,24.1,7,23,7z" fill="#000000"/>
<path d="M5,7H3C1.9,7,1,6.1,1,5V3c0-1.1,0.9-2,2-2h2c1.1,0,2,0.9,2,2v2C7,6.1,6.1,7,5,7z" fill="#000000"/>
<path d="M14,25h-2c-1.1,0-2-0.9-2-2v-2c0-1.1,0.9-2,2-2h2c1.1,0,2,0.9,2,2v2C16,24.1,15.1,25,14,25z" fill="#000000"/>
<path d="M5,25H3c-1.1,0-2-0.9-2-2v-2c0-1.1,0.9-2,2-2h2c1.1,0,2,0.9,2,2v2C7,24.1,6.1,25,5,25z" fill="#000000"/>
</svg>
