<?xml version="1.0" encoding="UTF-8" standalone="no"?>
<svg width="12px" height="15px" viewBox="0 0 12 15" version="1.1" xmlns="http://www.w3.org/2000/svg" xmlns:xlink="http://www.w3.org/1999/xlink">
    <!-- Generator: Sketch 3.8.2 (29753) - http://www.bohemiancoding.com/sketch -->
    <title>Lock Icon</title>
    <desc>Created with Sketch.</desc>
    <defs></defs>
    <g id="Page-1" stroke="none" stroke-width="1" fill="none" fill-rule="evenodd">
        <g id="Login" transform="translate(-590.000000, -523.000000)" fill="#000000">
            <g id="Container" transform="translate(521.000000, 324.000000)">
                <g id="Inputs" transform="translate(54.000000, 146.000000)">
                    <g id="Bottom-Field" transform="translate(0.000000, 41.000000)">
                        <path d="M25.3725282,17.8354186 C26.279014,17.8795537 27.0003,18.6077186 27.0003,19.4993 L27.0003,25.3323 C27.0003,26.2543 26.2323,27.0003 25.2853,27.0003 L16.7143,27.0003 C15.7673,27.0003 15.0003,26.2543 15.0003,25.3323 L15.0003,19.4993 C15.0003,18.6410269 15.6678298,17.9341883 16.5262928,17.843202 L15.8466,17.8438 L15.8476,17.8438 C15.8696,17.8408 15.8366,17.8368 15.8576,17.8338 C15.8586,17.8338 15.9146,17.8348 15.9146,17.8348 C16.1936,17.7858 16.7146,17.2788 16.7146,16.9998 L16.7146,16.1668 C16.7146,13.7538 18.4646,11.9998 20.9996,11.9998 C23.5346,11.9998 25.2856,13.7538 25.2856,16.1668 L25.2856,16.9998 C25.2856,17.2788 25.8636,17.7848 26.1426,17.8338 C26.1426,17.8338 26.1536,18.1468 26.0756,17.8348 L25.3725282,17.8354186 Z M18.4286,16.1668 C18.4286,14.9168 19.6876,13.6668 20.9996,13.6668 C22.3126,13.6668 23.5716,14.9168 23.5716,16.1668 L23.5716,16.9998 C23.5716,17.3148 23.0456,17.8338 22.7146,17.8338 L20.9936,17.8278 L19.2856,17.8338 C18.9546,17.8338 18.4286,17.3148 18.4286,16.9998 L18.4286,16.1668 Z" id="Lock-Icon"></path>
                    </g>
                </g>
            </g>
        </g>
    </g>
</svg>