<?xml version="1.0" encoding="utf-8"?>
<!-- Generator: Adobe Illustrator 15.0.0, SVG Export Plug-In . SVG Version: 6.00 Build 0)  -->
<!DOCTYPE svg PUBLIC "-//W3C//DTD SVG 1.1//EN" "http://www.w3.org/Graphics/SVG/1.1/DTD/svg11.dtd">
<svg xmlns="http://www.w3.org/2000/svg" xmlns:xlink="http://www.w3.org/1999/xlink" version="1.1" id="Layer_1" x="0px" y="0px" width="26px" height="26px" viewBox="0 0 26 26" enable-background="new 0 0 26 26" xml:space="preserve" fill="#000000">

<path fill="#000000" d="M8.925,7.576c0.334,0.593,2.473,0.89,3.521,0.852c1.048-0.037,3.192-0.508,3.112-1.407  c-0.148-1.667,0.867-3.896,1.068-4.206c0.407-0.63,0.44-1.944-1.282-1.318c-0.403,0.146-1.354,1.135-1.758-0.037  c-0.726-2.106-2.411-1.521-2.782-0.146C10.547,2.266,9.521,2.338,8.35,2.229C6.978,2.1,6.802,2.959,7.258,3.686  C7.502,4.072,8.541,6.896,8.925,7.576z"/>
<g fill="#000000">
	<path fill="#000000" d="M12.52,9.873c-2.78,0.102-3.585-0.916-3.747-0.859c-4.115,1.43-7.585,5.629-7.585,9.885   c0,5.475,3.124,6.914,11.813,6.914s11.813-1.475,11.813-6.914c0-4.576-4.228-8.958-8.577-10.195   C16.007,8.638,15.595,9.762,12.52,9.873z M13.107,20.791v1.12c0,0.083-0.068,0.151-0.151,0.151H11.95   c-0.084,0-0.152-0.068-0.152-0.151v-1.029c-0.712-0.044-1.44-0.251-1.89-0.537c-0.057-0.036-0.082-0.104-0.064-0.169l0.326-1.15   c0.013-0.045,0.047-0.082,0.09-0.1c0.047-0.016,0.094-0.013,0.135,0.012c0.318,0.19,0.977,0.511,1.81,0.511   c0.695,0,1.144-0.312,1.144-0.793c0-0.458-0.345-0.761-1.23-1.079c-1.084-0.396-2.194-0.98-2.194-2.31   c0-1.103,0.743-1.935,1.948-2.194v-1.049c0-0.084,0.068-0.152,0.152-0.152h0.992c0.083,0,0.151,0.068,0.151,0.152v0.969   c0.76,0.047,1.266,0.26,1.587,0.42c0.065,0.033,0.098,0.108,0.077,0.179l-0.327,1.112c-0.012,0.043-0.044,0.078-0.085,0.098   c-0.041,0.018-0.087,0.016-0.128-0.004c-0.318-0.16-0.813-0.408-1.578-0.408c-0.626,0-0.998,0.261-0.998,0.696   c0,0.386,0.348,0.649,1.379,1.045c1.435,0.538,2.047,1.253,2.047,2.393C15.141,19.659,14.346,20.538,13.107,20.791z"/>
</g>
</svg>
