<?xml version="1.0" encoding="UTF-8" standalone="no"?>
<svg width="13px" height="15px" viewBox="0 0 13 15" version="1.1" xmlns="http://www.w3.org/2000/svg" xmlns:xlink="http://www.w3.org/1999/xlink">
    <!-- Generator: Sketch 3.8.2 (29753) - http://www.bohemiancoding.com/sketch -->
    <title>User Icon</title>
    <desc>Created with Sketch.</desc>
    <defs></defs>
    <g id="Page-1" stroke="none" stroke-width="1" fill="none" fill-rule="evenodd">
        <g id="Login" transform="translate(-589.000000, -483.000000)" fill="#000000">
            <g id="Container" transform="translate(521.000000, 324.000000)">
                <g id="Inputs" transform="translate(54.000000, 146.000000)">
                    <g id="Top-Field">
                        <path d="M15.8572,21.8236 C15.8572,21.8236 18.0912,22.7056 20.3672,22.7056 C22.7322,22.7056 25.1432,21.8236 25.1432,21.8236 C25.8492,22.3746 27.0002,23.4956 27.0002,24.4696 L27.0002,26.2356 C27.0002,27.2096 26.1692,27.9996 25.1432,27.9996 L15.8572,27.9996 C14.8312,27.9996 14.0002,27.2096 14.0002,26.2356 L14.0002,24.4696 C14.0002,23.4956 15.1502,22.4566 15.8572,21.8236 Z M20.5,12.9996 C22.551,12.9996 24.214,14.9746 24.214,17.4116 C24.214,19.8486 22.551,21.8236 20.5,21.8236 C18.449,21.8236 16.786,19.8486 16.786,17.4116 C16.786,14.9746 18.449,12.9996 20.5,12.9996 Z" id="User-Icon"></path>
                    </g>
                </g>
            </g>
        </g>
    </g>
</svg>