<?xml version="1.0" encoding="utf-8"?>
<!-- Generator: Adobe Illustrator 15.0.0, SVG Export Plug-In . SVG Version: 6.00 Build 0)  -->
<!DOCTYPE svg PUBLIC "-//W3C//DTD SVG 1.1//EN" "http://www.w3.org/Graphics/SVG/1.1/DTD/svg11.dtd">
<svg xmlns="http://www.w3.org/2000/svg" xmlns:xlink="http://www.w3.org/1999/xlink" version="1.1" id="Слой_1" x="0px" y="0px" width="50px" height="50px" viewBox="0 0 50 50" enable-background="new 0 0 50 50" xml:space="preserve" fill="#000000">
<path d="M39.695,47.225c-0.185,0-0.369-0.051-0.531-0.153L25,38.181l-14.163,8.891c-0.346,0.217-0.789,0.202-1.12-0.038  c-0.33-0.239-0.481-0.656-0.382-1.053l4.08-16.217L0.583,19.042c-0.313-0.262-0.436-0.688-0.31-1.077  c0.126-0.388,0.476-0.661,0.883-0.688l16.684-1.131l6.232-15.519C24.224,0.249,24.592,0,25,0s0.776,0.249,0.928,0.627l6.232,15.519  l16.683,1.131c0.408,0.027,0.758,0.3,0.884,0.688c0.126,0.389,0.003,0.814-0.31,1.077L36.585,29.764l4.08,16.217  c0.1,0.396-0.052,0.813-0.382,1.053C40.108,47.16,39.902,47.225,39.695,47.225z" fill="#000000"/>
</svg>
