<?xml version="1.0" encoding="utf-8"?>
<!-- Generator: Adobe Illustrator 15.0.0, SVG Export Plug-In . SVG Version: 6.00 Build 0)  -->
<!DOCTYPE svg PUBLIC "-//W3C//DTD SVG 1.1//EN" "http://www.w3.org/Graphics/SVG/1.1/DTD/svg11.dtd">
<svg xmlns="http://www.w3.org/2000/svg" xmlns:xlink="http://www.w3.org/1999/xlink" version="1.1" id="Слой_1__x28_копия_x29_" x="0px" y="0px" width="50px" height="50px" viewBox="0 0 50 50" enable-background="new 0 0 50 50" xml:space="preserve" fill="#000000">
<g fill="#000000">
	<path d="M44,24.98c0-0.061,0.001-0.126,0.001-0.168c0-0.065-0.013-0.126-0.02-0.189C43.778,14.322,35.351,6,25.001,6   C20.602,6,16.37,7.556,13,10.304V8c0-1.104-0.896-2-2-2S9,6.896,9,8v9l9-0.001c1.104,0,2-0.896,2-2c0-1.104-0.896-2-2-2h-1.979   C18.595,11.076,21.742,10,25.001,10C33.266,10,39.988,16.718,40,24.979c-0.006,0.78-0.046,2.311-0.102,2.789   c-0.128,1.097,0.658,2.09,1.756,2.217c0.078,0.01,0.156,0.014,0.233,0.014c1.001,0,1.865-0.751,1.983-1.77   c0.089-0.767,0.123-2.511,0.129-3.217c0-0.004,0.001-0.008,0.001-0.012C44.001,24.993,44,24.987,44,24.98z" fill="#000000"/>
	<path d="M25.79,41.014c-0.058,0.007-0.104,0.013-0.142,0.016C25.529,41.016,25.353,41,25.001,41c-1.104,0-2,0.896-2,2s0.896,2,2,2   c0.137,0,0.191,0.004,0.23,0.009c0.138,0.017,0.257,0.025,0.387,0.025c0.172,0,0.363-0.016,0.641-0.048   c1.097-0.13,1.881-1.124,1.752-2.221C27.881,41.668,26.885,40.88,25.79,41.014z" fill="#000000"/>
	<path d="M41.188,31.469c-1.023-0.415-2.153,0.096-2.604,1.103c-0.357,0.798-0.551,1.067-1.089,1.718   c-0.704,0.852-0.503,2.133,0.374,2.804c0.362,0.277,0.79,0.411,1.213,0.411c0.603,0,1.152-0.309,1.591-0.785   c0.672-0.729,1.141-1.553,1.618-2.646C42.732,33.062,42.211,31.884,41.188,31.469z" fill="#000000"/>
	<path d="M33.354,38.5c-0.575,0.435-0.876,0.579-1.892,1.021c-1.013,0.44-1.518,1.581-1.103,2.604   c0.315,0.777,1.063,1.25,1.854,1.25c0.25,0,0.5-0.058,0.75-0.147c0.958-0.344,1.75-0.814,2.817-1.55   c0.909-0.627,1.046-1.925,0.375-2.803C35.486,37.997,34.236,37.833,33.354,38.5z" fill="#000000"/>
	<path d="M8.088,28.576c1.104-0.042,1.964-0.971,1.922-2.075l-0.003-0.076c-0.042-1.104-1-1.935-2.074-1.883   c-1.104,0.042-1.963,1.01-1.92,2.114c0.042,1.077,0.928,1.923,1.997,1.923C8.036,28.578,8.062,28.578,8.088,28.576z" fill="#000000"/>
	<path d="M11.583,36.396c-0.831,0.729-0.967,2.042-0.186,2.822l0.358,0.404c0.38,0.333,0.85,0.496,1.318,0.496   c0.556,0,1.109-0.23,1.505-0.682c0.728-0.83,0.657-2.127-0.173-2.855C13.678,35.752,12.414,35.668,11.583,36.396z" fill="#000000"/>
	<path d="M11.109,31.672c-0.352-1.047-1.484-1.608-2.532-1.261c-1.047,0.352-1.612,1.484-1.261,2.532l0.202,0.49   c0.347,0.708,1.058,1.119,1.797,1.119c0.295,0,0.596-0.065,0.879-0.204C11.187,33.862,11.596,32.664,11.109,31.672z" fill="#000000"/>
	<path d="M19.279,39.879c-1.017-0.429-2.19-0.078-2.677,0.913c-0.487,0.991-0.078,2.189,0.913,2.677c0,0,0.436,0.162,0.546,0.199   c0.211,0.07,0.425,0.104,0.636,0.104c0.836,0,1.616-0.529,1.896-1.366C20.944,41.359,20.327,40.229,19.279,39.879z" fill="#000000"/>
</g>
</svg>
